{"title":"Essential Killing 2010 DVDrip English Klam","uid":6589043,"size":1293066849,"categoryP":"video","categoryS":"movies","magnet":"?xt=urn:btih:2116d6be09cb810ab86b7cb04a65bdc930b8b251&amp;dn=Essential+Killing+2010+DVDrip+English+Klam&amp;tr=udp%3A%2F%2Ftracker.openbittorrent.com%3A80&amp;tr=udp%3A%2F%2Fopen.demonii.com%3A1337&amp;tr=udp%3A%2F%2Ftracker.coppersurfer.tk%3A6969&amp;tr=udp%3A%2F%2Fexodus.desync.com%3A6969","seeders":0,"leechers":1,"uploader":"Klambake","files":-1,"time":1312744401,"description":"With: Vincent Gallo, Emmanuelle Seigner and Stig Frode Henriksen\n\nMohammed, een lid van de Taliban dat in Afghanistan woont, doodt drie Amerikaanse soldaten en wordt gevangen genomen door de Amerikanen. Hij wordt naar een geheime militaire basis in Oost-Europa overgebracht waar hij verhoord zal worden. Wanneer het bewapende konvooi van een steile helling af rijdt krijgt hij de kans om te ontsnappen. Hij vlucht de vijandelijke, besneeuwde bossen in. Nu is hij een gezochte misdadiger in een continent waar hij niets van af weet, achtervolgd door een leger dat officieel niet bestaat.\n\nA thriller centered on a political prisoner who attempts his escape. \n\n------------------ Dutch Friends ------------------\nYou can find my Friends at: http://www.Film-Test.nl \n------ They got my dutchs subs ---- and more ------\n\nGeneral:\n\nComplete name                    : Essential Killing\\Essential Killing.avi\nFormat                           : AVI\nFormat/Info                      : Audio Video Interleave\nFile size                        : 1.20 GiB\nDuration                         : 1h 21mn\nOverall bit rate                 : 2 122 Kbps\n\nVideo:\n\nFormat                           : MPEG-4 Visual\nFormat profile                   : Simple@L3\nFormat settings, BVOP            : No\nFormat settings, QPel            : No\nFormat settings, GMC             : No warppoints\nFormat settings, Matrix          : Default (H.263)\nCodec ID                         : XVID\nCodec ID/Hint                    : XviD\nDuration                         : 1h 21mn\nBit rate                         : 1 663 Kbps\nWidth                            : 652 pixels\nHeight                           : 352 pixels\nDisplay aspect ratio             : 1.852\nFrame rate                       : 25.000 fps\nColor space                      : YUV\nChroma subsampling               : 4:2:0\nBit depth                        : 8 bits\nScan type                        : Progressive\nBits/(Pixel*Frame)               : 0.290\nStream size                      : 966 MiB (78%)\nWriting library                  : XviD 1.1.2 (UTC 2006-11-01)\n\nAudio:\n\nFormat                           : AC-3\nFormat/Info                      : Audio Coding 3\nMode extension                   : CM (complete main)\nCodec ID                         : 2000\nDuration                         : 1h 21mn\nBit rate mode                    : Constant\nBit rate                         : 448 Kbps\nChannel(s)                       : 6 channels\nChannel positions                : Front: L C R, Side: L R, LFE\nSampling rate                    : 48.0 KHz\nBit depth                        : 16 bits\nStream size                      : 260 MiB (21%)\nAlignment                        : Aligned on interleaves\nInterleave, duration             : 32 ms (0.80 video frame)\nInterleave, preload duration     : 64 ms\n\n","torrent":{"xt":"urn:btih:2116d6be09cb810ab86b7cb04a65bdc930b8b251","amp;dn":"Essential+Killing+2010+DVDrip+English+Klam","amp;tr":["udp%3A%2F%2Ftracker.openbittorrent.com%3A80","udp%3A%2F%2Fopen.demonii.com%3A1337","udp%3A%2F%2Ftracker.coppersurfer.tk%3A6969","udp%3A%2F%2Fexodus.desync.com%3A6969"],"infoHash":"2116d6be09cb810ab86b7cb04a65bdc930b8b251","infoHashBuffer":{"type":"Buffer","data":[33,22,214,190,9,203,129,10,184,107,124,176,74,101,189,201,48,184,178,81]},"announce":[],"urlList":[]}}